# xmcd
#
# Track frame offsets:
#	150
#	13200
#	27975
#
# Disc length: 552 seconds
#
# Revision: 1
# Processed by: cddbd v1.5.2PL0 Copyright (c) Steve Scherf et al.
# Submitted via: EasyCDDAExtractor 10.0.6.1
#
DISCID=1d022603
DTITLE=Various Artist - songs from the basement
DYEAR=2002
DGENRE=Indie
TTITLE0=The Kentucky Head Hunters - The Ballad Of David Crockett
TTITLE1=Sharon Anderson - Unbelievable Love
TTITLE2=T. Graham Brown - With This Ring
EXTD=YEAR: 2002
EXTT0=
EXTT1=
EXTT2=
PLAYORDER=
